# xmcd
#
# Track frame offsets: 
#        150
#        16474
#        30054
#        42365
#        55510
#        67635
#        81965
#        93896
#        110196
#        126321
#        140117
#        154888
#        170025
#        181080
#        194244
#
# Disc length: 2786 seconds
#
# Revision: 0
# Processed by: cddbd v1.5.2PL0 Copyright (c) Steve Scherf et al.
# Submitted via: ExactAudioCopy v0.99pb5
#
DISCID=ca0ae00f
DTITLE=Various Artist - This is the Easy Album - CD2
DYEAR=2010
DGENRE=Blues
TTITLE0=My Baby Just Cares for Me
TTITLE1=I Get a Kick Out of You
TTITLE2=They Can't Take That Away From Me
TTITLE3=You Won't Be Satisfied (Until You Break My Heart)
TTITLE4=Sway
TTITLE5=Unforgettable
TTITLE6=Passing Strangers
TTITLE7=Secret Love
TTITLE8=Ev'rytime We Say Goodbye
TTITLE9=Blue Velvet
TTITLE10=Stormy Weather
TTITLE11=Bewitched
TTITLE12=The Twelfth Of Never
TTITLE13=For All We Know
TTITLE14=Just One More Chance
EXTD=
EXTT0=
EXTT1=
EXTT2=
EXTT3=
EXTT4=
EXTT5=
EXTT6=
EXTT7=
EXTT8=
EXTT9=
EXTT10=
EXTT11=
EXTT12=
EXTT13=
EXTT14=
PLAYORDER=
